<mxfile host="app.diagrams.net" modified="2023-08-18T03:24:15.162Z" agent="Mozilla/5.0 (Windows NT 10.0; Win64; x64) AppleWebKit/537.36 (KHTML, like Gecko) Chrome/115.0.0.0 Safari/537.36" version="21.6.1" etag="1aQAS5yXQvId88X1HyAH" type="github">
  <diagram name="第 1 页" id="vUxHlLtyB5K0IhKky5PD">
    <mxGraphModel>
      <root>
        <mxCell id="0" />
        <mxCell id="1" parent="0" />
      </root>
    </mxGraphModel>
  </diagram>
</mxfile>
